# xmcd
#
# Track frame offsets:
#	150
#	13180
#	36147
#	55280
#	64742
#	75485
#	98690
#	115402
#	132995
#	152395
#	164787
#
# Disc length: 2592 seconds
# Revision: 2
# Processed by: cddbd v1.5.2PL0 Copyright (c) Steve Scherf et al.
# Submitted via: dBpowerAMP V12.0
#
DISCID=8b0a1e0b
DTITLE=Rockie Charles - Born For You
DYEAR=1996
DGENRE=Soul
TTITLE0=Born For You
TTITLE1=Old Black Joel
TTITLE2=Oh my Darling, Look What You're Doing to me
TTITLE3=Festis Believe in Justice
TTITLE4=Please Tell me it Aint so
TTITLE5=Something is Wrong With Our Love
TTITLE6=I Need Your Love so Bad, I'm About to Loose my Mind
TTITLE7=Don't Let me go
TTITLE8=I Just Called to Wish You a Merry Christmas
TTITLE9=I Like to Make Love When Its Pouring Down Rain
TTITLE10=There is a Rainbow Hangin' Over my Shoulder
EXTD=
EXTT0=
EXTT1=
EXTT2=
EXTT3=
EXTT4=
EXTT5=
EXTT6=
EXTT7=
EXTT8=
EXTT9=
EXTT10=
PLAYORDER=
